<?xml version="1.0" encoding="utf-8"?>
<!-- Generator: Adobe Illustrator 21.1.0, SVG Export Plug-In . SVG Version: 6.00 Build 0)  -->
<svg version="1.1" id="Layer_1" xmlns="http://www.w3.org/2000/svg" xmlns:xlink="http://www.w3.org/1999/xlink" x="0px" y="0px"
	 viewBox="0 0 135.4272461 15.2885742" style="enable-background:new 0 0 135.4272461 15.2885742;" xml:space="preserve">
<style type="text/css">
	.st0{enable-background:new    ;}
</style>
<title>#visitSEDONA</title>
<desc>Created with Sketch.</desc>
<g id="Pages">
	<g id="Index" transform="translate(-172.000000, -2694.000000)">
		<g id="footer" transform="translate(40.000000, 2642.000000)">
			<g class="st0">
				<path d="M137.6699219,62.6894531h-1.8686523l-0.7563477,3.2338867h-2.2470703l0.7563477-3.2338867H132l0.4619141-2.0371094
					h1.5751953l0.5249023-2.2265625h-1.5117188l0.4619141-2.0371094h1.5327148l0.7353516-3.0234375h2.2255859l-0.7138672,3.0234375
					h1.8691406l0.7348633-3.0234375h2.2260742l-0.7138672,3.0234375h1.5117188l-0.5249023,2.0371094h-1.4697266
					l-0.5253906,2.2265625h1.4492188l-0.5039062,2.0371094h-1.4282227l-0.7558594,3.2338867h-2.2470703L137.6699219,62.6894531z
					 M136.2841797,60.6523438h1.8686523l0.5253906-2.2265625h-1.8691406L136.2841797,60.6523438z"/>
				<path d="M149.5976562,60.9248047l0.3779297,2.4990234h0.1054688l0.4199219-2.5195312l2.8139648-8.6103516h3.0239258
					l-5.4599609,14.8061523h-2.0581055l-5.5019531-14.8061523h3.3388672L149.5976562,60.9248047z"/>
				<path d="M157.7036133,52.2939453h2.8769531v14.7006836h-2.8769531V52.2939453z"/>
				<path d="M169.7363281,63.0458984c0-0.4472656-0.1645508-0.8115234-0.4936523-1.0917969
					s-0.7421875-0.5351562-1.2387695-0.7666016c-0.4970703-0.2304688-1.0361328-0.46875-1.6171875-0.7138672
					s-1.1201172-0.5458984-1.6166992-0.9033203c-0.4975586-0.3564453-0.9106445-0.8007812-1.2392578-1.3330078
					c-0.3291016-0.5322266-0.4936523-1.2109375-0.4936523-2.0371094c0-0.7138672,0.1191406-1.3339844,0.3569336-1.8583984
					c0.2382812-0.5253906,0.5776367-0.9628906,1.0185547-1.3125c0.4414062-0.3496094,0.9624023-0.609375,1.5644531-0.7773438
					S167.2509766,52,167.9931641,52c0.8540039,0,1.6591797,0.0732422,2.4150391,0.2207031
					c0.7558594,0.1464844,1.3789062,0.3603516,1.8691406,0.640625l-0.902832,2.4150391
					c-0.3081055-0.1962891-0.7705078-0.375-1.3862305-0.5361328c-0.6162109-0.1601562-1.2807617-0.2412109-1.9951172-0.2412109
					c-0.671875,0-1.1865234,0.1337891-1.543457,0.3994141s-0.5356445,0.6230469-0.5356445,1.0703125
					c0,0.4199219,0.1645508,0.7705078,0.4936523,1.0507812c0.3286133,0.2802734,0.7421875,0.5390625,1.2392578,0.7763672
					c0.496582,0.2382812,1.0356445,0.4833984,1.6166992,0.7353516s1.1201172,0.5566406,1.6171875,0.9130859
					c0.496582,0.3574219,0.909668,0.7978516,1.2387695,1.3232422s0.4936523,1.1796875,0.4936523,1.9638672
					s-0.1293945,1.4589844-0.3886719,2.0268555c-0.2592773,0.5664062-0.6230469,1.0390625-1.0917969,1.4169922
					c-0.4692383,0.3779297-1.0361328,0.6582031-1.7011719,0.8408203c-0.6650391,0.1816406-1.3964844,0.2724609-2.1943359,0.2724609
					c-1.0498047,0-1.9741211-0.0976562-2.7719727-0.2939453s-1.3862305-0.3916016-1.7641602-0.5878906l0.9243164-2.4575195
					c0.1538086,0.0839844,0.3530273,0.1748047,0.5981445,0.2724609c0.2451172,0.0986328,0.5214844,0.1899414,0.8295898,0.2739258
					c0.3076172,0.0839844,0.6333008,0.1542969,0.9765625,0.2099609c0.3427734,0.0566406,0.6962891,0.0839844,1.0605469,0.0839844
					c0.8535156,0,1.5083008-0.1435547,1.9633789-0.4311523C169.5087891,64.0722656,169.7363281,63.6337891,169.7363281,63.0458984z"
					/>
				<path d="M174.8183594,52.2939453h2.8769531v14.7006836h-2.8769531V52.2939453z"/>
				<path d="M190.9458008,54.8564453h-4.2836914v12.1381836h-2.8769531V54.8564453h-4.3051758v-2.5625h11.4658203V54.8564453z"/>
				<path d="M198.7788086,63.0458984c0-0.4472656-0.1645508-0.8115234-0.4936523-1.0917969
					s-0.7421875-0.5351562-1.2387695-0.7666016c-0.4970703-0.2304688-1.0361328-0.46875-1.6171875-0.7138672
					s-1.1201172-0.5458984-1.6166992-0.9033203c-0.4975586-0.3564453-0.9106445-0.8007812-1.2392578-1.3330078
					c-0.3291016-0.5322266-0.4936523-1.2109375-0.4936523-2.0371094c0-0.7138672,0.1191406-1.3339844,0.3569336-1.8583984
					c0.2382812-0.5253906,0.5776367-0.9628906,1.0185547-1.3125c0.4414062-0.3496094,0.9624023-0.609375,1.5644531-0.7773438
					S196.293457,52,197.0356445,52c0.8540039,0,1.6591797,0.0732422,2.4150391,0.2207031
					c0.7558594,0.1464844,1.3789062,0.3603516,1.8691406,0.640625l-0.902832,2.4150391
					c-0.3081055-0.1962891-0.7705078-0.375-1.3862305-0.5361328c-0.6162109-0.1601562-1.2807617-0.2412109-1.9951172-0.2412109
					c-0.671875,0-1.1865234,0.1337891-1.543457,0.3994141s-0.5356445,0.6230469-0.5356445,1.0703125
					c0,0.4199219,0.1645508,0.7705078,0.4936523,1.0507812c0.3286133,0.2802734,0.7421875,0.5390625,1.2392578,0.7763672
					c0.496582,0.2382812,1.0356445,0.4833984,1.6166992,0.7353516s1.1201172,0.5566406,1.6171875,0.9130859
					c0.496582,0.3574219,0.9101562,0.7978516,1.2392578,1.3232422s0.4931641,1.1796875,0.4931641,1.9638672
					s-0.1289062,1.4589844-0.3886719,2.0268555c-0.2587891,0.5664062-0.6230469,1.0390625-1.0917969,1.4169922
					c-0.4692383,0.3779297-1.0361328,0.6582031-1.7011719,0.8408203c-0.6650391,0.1816406-1.3964844,0.2724609-2.1943359,0.2724609
					c-1.0498047,0-1.9741211-0.0976562-2.7719727-0.2939453s-1.3862305-0.3916016-1.7641602-0.5878906l0.9243164-2.4575195
					c0.1538086,0.0839844,0.3530273,0.1748047,0.5981445,0.2724609c0.2451172,0.0986328,0.5214844,0.1899414,0.8295898,0.2739258
					c0.3076172,0.0839844,0.6333008,0.1542969,0.9765625,0.2099609c0.3427734,0.0566406,0.6962891,0.0839844,1.0605469,0.0839844
					c0.8535156,0,1.5083008-0.1435547,1.9633789-0.4311523C198.5512695,64.0722656,198.7788086,63.6337891,198.7788086,63.0458984z"
					/>
				<path d="M203.5668945,52.2939453h8.7158203v2.5625h-5.8378906v3.4228516h5.3125v2.5615234h-5.3125v3.5922852h5.9423828
					v2.5615234h-8.8203125V52.2939453z"/>
				<path d="M214.5288086,52.2939453c0.2939453-0.0419922,0.6259766-0.0761719,0.9970703-0.1044922
					s0.7529297-0.0488281,1.1445312-0.0634766c0.3925781-0.0136719,0.7734375-0.0244141,1.1445312-0.03125
					s0.7041016-0.0107422,0.9980469-0.0107422c1.3017578,0,2.4150391,0.1826172,3.3388672,0.5458984
					c0.9238281,0.3642578,1.6728516,0.875,2.2470703,1.5332031s0.9941406,1.4423828,1.2597656,2.3525391
					s0.3994141,1.9101562,0.3994141,3.0029297c0,0.9941406-0.1259766,1.9521484-0.3779297,2.8769531
					c-0.2519531,0.9238281-0.6728516,1.7421875-1.2607422,2.4575195c-0.5878906,0.7138672-1.3613281,1.2880859-2.3203125,1.7216797
					s-2.1455078,0.6513672-3.5595703,0.6513672c-0.2236328,0-0.5214844-0.0078125-0.8925781-0.0214844
					s-0.7558594-0.03125-1.1542969-0.0527344c-0.3994141-0.0205078-0.78125-0.0419922-1.1445312-0.0625
					c-0.3642578-0.0214844-0.6376953-0.0458984-0.8193359-0.0732422V52.2939453z M219.043457,54.6464844
					c-0.3076172,0-0.6191406,0.0068359-0.9345703,0.0205078c-0.3144531,0.0146484-0.5488281,0.0351562-0.703125,0.0634766v9.8491211
					c0.0556641,0.0136719,0.1503906,0.0244141,0.2832031,0.03125c0.1328125,0.0078125,0.2763672,0.0146484,0.4306641,0.0214844
					s0.3007812,0.0136719,0.4414062,0.0205078c0.1396484,0.0078125,0.2441406,0.0107422,0.3144531,0.0107422
					c0.8125,0,1.4873047-0.1435547,2.0263672-0.4311523c0.5390625-0.2861328,0.9667969-0.6679688,1.28125-1.1445312
					c0.3154297-0.4755859,0.5361328-1.0253906,0.6621094-1.6484375s0.1884766-1.2626953,0.1884766-1.9208984
					c0-0.5742188-0.0556641-1.1513672-0.1679688-1.7333984c-0.1123047-0.5800781-0.3183594-1.1015625-0.6191406-1.5644531
					c-0.3017578-0.4619141-0.7109375-0.8398438-1.2285156-1.1337891
					C220.4995117,54.7929688,219.8422852,54.6464844,219.043457,54.6464844z"/>
				<path d="M227.6538086,59.6445312c0-2.4501953,0.5390625-4.3369141,1.6171875-5.6601562
					C230.3481445,52.6621094,231.8881836,52,233.8911133,52c1.0498047,0,1.9667969,0.1826172,2.7509766,0.5458984
					c0.7832031,0.3642578,1.4345703,0.8818359,1.9521484,1.5546875c0.5185547,0.671875,0.9033203,1.4765625,1.1552734,2.4150391
					c0.2519531,0.9375,0.3779297,1.9804688,0.3779297,3.1289062c0,2.4501953-0.5419922,4.3359375-1.6269531,5.659668
					c-1.0849609,1.3232422-2.6220703,1.984375-4.609375,1.984375c-1.0644531,0-1.9882812-0.1816406-2.7724609-0.5458984
					s-1.4316406-0.8818359-1.9423828-1.5537109c-0.5117188-0.671875-0.8925781-1.4780273-1.1445312-2.4155273
					C227.7797852,61.8349609,227.6538086,60.7919922,227.6538086,59.6445312z M230.6772461,59.6445312
					c0,0.7421875,0.0634766,1.4248047,0.1894531,2.046875c0.1259766,0.6230469,0.3183594,1.1591797,0.5771484,1.6064453
					c0.2587891,0.4482422,0.5917969,0.7978516,0.9980469,1.0498047c0.4052734,0.253418,0.8886719,0.3793945,1.4492188,0.3793945
					c1.0214844,0,1.8125-0.3999023,2.3730469-1.1977539c0.5595703-0.7978516,0.8398438-2.0927734,0.8398438-3.8847656
					c0-0.7148438-0.0595703-1.3789062-0.1787109-1.9951172s-0.3046875-1.1552734-0.5566406-1.6171875
					s-0.5810547-0.8222656-0.9873047-1.0820312c-0.40625-0.2587891-0.9023438-0.3876953-1.4902344-0.3876953
					c-1.0224609,0-1.8134766,0.4091797-2.3730469,1.2285156C230.9575195,56.609375,230.6772461,57.8945312,230.6772461,59.6445312z"
					/>
				<path d="M245.8393555,59.3291016l-1.1552734-2.3095703h-0.1044922l0.3359375,2.3095703v7.6655273h-2.7304688V52.1894531
					h2.1005859l5.5644531,7.8330078l1.1132812,2.2470703h0.1054688l-0.3359375-2.2470703v-7.7285156h2.7294922v14.8061523
					h-2.0996094L245.8393555,59.3291016z"/>
				<path d="M263.2270508,63.7392578h-4.5146484l-1.1132812,3.2553711h-2.8769531l5.2919922-14.8051758h2.1210938
					l5.2919922,14.8051758h-3.0234375L263.2270508,63.7392578z M259.4477539,61.4287109h3.1494141l-1.0917969-3.2753906
					l-0.4414062-2.3105469h-0.1044922l-0.4414062,2.3310547L259.4477539,61.4287109z"/>
			</g>
		</g>
	</g>
</g>
</svg>
